<?xml version="1.0" encoding="utf-8"?>
<!-- Generator: Adobe Illustrator 16.0.0, SVG Export Plug-In . SVG Version: 6.00 Build 0)  -->
<!DOCTYPE svg PUBLIC "-//W3C//DTD SVG 1.1//EN" "http://www.w3.org/Graphics/SVG/1.1/DTD/svg11.dtd">
<svg version="1.1" id="Layer_1" xmlns="http://www.w3.org/2000/svg" xmlns:xlink="http://www.w3.org/1999/xlink" x="0px" y="0px"
	 width="67.7px" height="67.7px" viewBox="0 0 67.7 67.7" style="enable-background:new 0 0 67.7 67.7;" xml:space="preserve">
<style type="text/css">
<![CDATA[
	.st0{fill:#E58847;}
	.st1{fill:#63C3D3;}
]]>
</style>
<g>
	<path class="st1" d="M46.8,6.3C39.7,3,31.4,2.3,23.5,5.2C15.6,8.1,9.6,13.9,6.3,21C3,28,2.3,36.3,5.2,44.3
		c2.9,7.9,8.7,13.9,15.7,17.2c7.1,3.3,15.4,3.9,23.3,1.1c7.9-2.9,13.9-8.7,17.2-15.7c3.3-7.1,3.9-15.4,1.1-23.3
		C59.7,15.6,53.9,9.6,46.8,6.3z M22.3,2c8.8-3.2,18-2.5,25.9,1.2c7.8,3.7,14.3,10.3,17.5,19.1c3.2,8.8,2.5,18-1.2,25.9
		c-3.7,7.8-10.3,14.3-19.1,17.5c-8.8,3.2-18,2.5-25.9-1.2C11.7,60.9,5.2,54.2,2,45.4c-3.2-8.8-2.5-18,1.2-25.9
		C6.9,11.7,13.5,5.2,22.3,2z"/>
</g>
<g>
	<path class="st0" d="M57.8,35.8c-6.6,3.3-13.3,6.2-20.1,8.7c-6.8,2.5-13.8,4.5-21,6.2c-0.5-0.5-0.9-1-1.3-1.5l42.5-15.4
		C57.9,34.5,57.9,35.2,57.8,35.8z M50.6,51.2L50.6,51.2l-0.1,0.1l-0.1,0.1l-0.1,0.1l-0.1,0.1l-0.1,0.1l-0.1,0.1l-0.1,0.1l0,0l0,0
		L50,51.7l-0.1,0.1l0,0l0,0c-0.1,0.1-0.2,0.2-0.3,0.3l0,0c-1.7,1.5-3.7,2.7-5.8,3.7l0,0c-0.1,0.1-0.3,0.1-0.4,0.2l0,0
		c-0.2,0.1-0.4,0.2-0.6,0.3l-0.1,0l0,0l-0.2,0.1l0,0l-0.1,0l-0.1,0l-0.1,0l-0.1,0l0,0l-0.2,0.1l0,0l-0.1,0c-0.2,0.1-0.4,0.1-0.7,0.2
		l0,0c-0.1,0-0.3,0.1-0.4,0.1l0,0c-2.3,0.6-4.6,0.9-6.8,0.9v0c-0.2,0-0.3,0-0.5,0l0,0l-0.1,0l-0.1,0l-0.1,0h0l0,0l-0.1,0l-0.1,0
		l-0.1,0l-0.1,0l-0.1,0l-0.1,0l-0.1,0l-0.1,0c-0.7-0.1-1.4-0.1-2.1-0.3c1.1-1.2,2.3-2.4,3.6-3.4c1.9-1.4,4-2.6,6.4-3.5
		c2.3-0.8,4.7-1.3,7.1-1.4c1.7-0.1,3.3,0,4.9,0.3C51.6,50.1,51.1,50.7,50.6,51.2z M58.8,30.3L12.4,47.1l0,0c-0.1,0-0.2,0.1-0.3,0.2
		c-0.7,0.5-0.9,1.4-0.4,2.1c3.5,5,8.5,8.6,14,10.3c0.4,0.1,0.8,0.2,1.2,0.3l0.1,0c0.6,0.2,1.3,0.3,2,0.4l0,0l0.2,0l0,0l0.2,0l0,0
		l0,0l0.3,0h0l0.1,0l0.1,0l0,0l0.1,0l0.1,0l0,0l0.1,0l0.1,0l0.1,0l0.1,0l0.1,0l0.1,0c3.2,0.4,6.5,0.1,9.8-0.7l0.1,0l0.1,0l0.1,0
		l0.1,0l0,0l0.1,0l0.1,0l0,0l0.1,0l0.1,0l0,0l0.1,0l0.1,0l0,0l0,0l0.2-0.1l0.1,0l0.1,0l0.1,0l0.1,0l0,0l0.1,0l0.1,0l0,0l0.1,0l0.1,0
		l0.1,0l0.1,0l0,0l0.1,0l0.1,0l0,0l0.1,0l0.1,0l0.1,0l0.1,0l0.2-0.1l0,0l0,0l0.1,0l0.1,0l0,0l0.1-0.1l0.1-0.1l0,0l0.1,0l0.1-0.1l0,0
		l0.1,0l0.1-0.1l0.1-0.1l0.1-0.1c3-1.4,5.7-3.4,8-5.7l0.1-0.1c0.1-0.1,0.2-0.2,0.3-0.3l0.1-0.1l0.1-0.1l0.1-0.1l0.1-0.1l0.1-0.1
		l0.1-0.1l0,0l0,0c0.1-0.1,0.2-0.3,0.3-0.4l0-0.1l0.1-0.2l0,0c0.2-0.2,0.3-0.4,0.5-0.6v0c0.2-0.3,0.5-0.6,0.7-0.9c0,0,0-0.1,0.1-0.1
		l0,0c0.2-0.3,0.5-0.7,0.7-1c3.1-4.9,4.7-10.7,4.2-16.8c0-0.2,0-0.3-0.1-0.5C60.5,30.4,59.6,30,58.8,30.3z"/>
</g>
<g>
	<ellipse transform="matrix(0.9402 -0.3406 0.3406 0.9402 -9.3814 8.6888)" class="st0" cx="20.1" cy="31.1" rx="4.2" ry="4.9"/>
</g>
<g>
	<ellipse transform="matrix(0.9402 -0.3406 0.3406 0.9402 -5.236 15.905)" class="st0" cx="42.7" cy="22.9" rx="4.2" ry="4.9"/>
</g>
</svg>
