<?xml version="1.0" encoding="utf-8"?>
<!-- Generator: Adobe Illustrator 16.0.0, SVG Export Plug-In . SVG Version: 6.00 Build 0)  -->
<!DOCTYPE svg PUBLIC "-//W3C//DTD SVG 1.1//EN" "http://www.w3.org/Graphics/SVG/1.1/DTD/svg11.dtd">
<svg version="1.1" id="Layer_1" xmlns="http://www.w3.org/2000/svg" xmlns:xlink="http://www.w3.org/1999/xlink" x="0px" y="0px"
	 width="68.4px" height="68.6px" viewBox="0 0 68.4 68.6" style="enable-background:new 0 0 68.4 68.6;" xml:space="preserve">
<style type="text/css">
<![CDATA[
	.st0{fill:#ABCD4B;}
	.st1{fill:#63C3D3;}
]]>
</style>
<g>
	<path class="st1" d="M32.1,56c2.8,2.9,4.7,6.8,4.5,12.6l-4.8-0.2c0.1-2.4-0.4-4.3-1.2-6H19.1c-0.7,0-1.2-0.5-1.2-1.2
		c0-0.7,0.5-1.2,1.2-1.2h10c-1.2-1.4-2.7-2.6-4.3-3.7c0.7,0.1,1.4,0.1,2.2,0.1C28.7,56.4,30.4,56.3,32.1,56z M19.9,28
		c-1.8,1.1-3.4,2.3-4.7,3.8h10.6c0.7,0,1.2,0.5,1.2,1.2c0,0.7-0.5,1.2-1.2,1.2H13.7c-0.5,1.1-0.7,2.3-0.7,3.7c0,1.3,0.2,2.5,0.7,3.6
		H26c0.7,0,1.2,0.5,1.2,1.2c0,0.7-0.5,1.2-1.2,1.2H15.1c0.2,0.3,0.4,0.5,0.7,0.8c-3.2-2.1-5.9-5-7.6-8.4c0.5-5.3,3.4-8.4,7-11
		c0.9,0.6,1.8,1.1,2.7,1.7C18.6,27.3,19.2,27.7,19.9,28z M36.6,8.4c0,0.3,0,0.6,0,0.7c-0.3,6.3-3.3,10.1-7.1,13
		c-1.2-0.8-2.5-1.5-3.8-2.2c-0.3-0.2-0.6-0.3-0.9-0.5c3.2-2.1,5.8-4.6,6.7-8.6h-13c-0.7,0-1.2-0.5-1.2-1.2c0-0.7,0.5-1.2,1.2-1.2
		h13.3c0-0.3,0-0.7,0-1.1v0c0-0.2,0-0.5,0-0.7C33.5,7,35.1,7.6,36.6,8.4z"/>
</g>
<g>
	<path class="st0" d="M20.9,55.8c-3.4,2.1-6.4,4.7-7.5,8.8h12.3c0.7,0,1.2,0.5,1.2,1.2S26.4,67,25.7,67H13c0,0.5,0,1,0,1.5l-4.8,0.2
		C7.9,61.3,11,57,15,53.9C16.9,54.7,18.8,55.3,20.9,55.8z M27,3.6C14.1,3.6,3.6,14.1,3.6,27c0,12.9,10.5,23.4,23.4,23.4
		c12.9,0,23.4-10.5,23.4-23.4C50.3,14.1,39.9,3.6,27,3.6z M27,0c14.9,0,27,12.1,27,27c0,14.9-12.1,27-27,27C12.1,54,0,41.9,0,27
		C0,12.1,12.1,0,27,0z M48.1,45.4L48.1,45.4c0.5-0.5,1.2-0.5,1.7,0c0.5,0.5,0.5,1.2,0,1.7l-2.7,2.7c-0.5,0.5-1.2,0.5-1.7,0
		c-0.5-0.5-0.5-1.2,0-1.7L48.1,45.4z M49.3,55.3c-1.7-1.7-1.7-4.3,0-6c1.7-1.7,4.3-1.7,6,0l11.9,11.9c1.7,1.7,1.7,4.3,0,6
		c-1.7,1.7-4.3,1.7-6,0L49.3,55.3z M13.4,11.1c0.2,0.8,0.4,1.5,0.8,2.2h11.4c0.7,0,1.2,0.5,1.2,1.2c0,0.7-0.5,1.2-1.2,1.2h-9.9
		c2.2,2.7,5.4,4.5,8.5,6.3c6.3,3.6,12.5,7,12.5,15.9c0,3.8-1.1,6.6-3,8.9c-2.1,0.7-4.4,1.1-6.7,1.1c-0.7,0-1.4,0-2.1-0.1
		c3.5-2.2,6.4-4.6,6.8-8.7h-13c-0.7,0-1.2-0.5-1.2-1.2c0-0.7,0.5-1.2,1.2-1.2h12.9c-0.6-5.2-5.2-7.8-9.9-10.4
		c-4.9-2.7-9.8-5.5-12.2-10.8C10.6,13.8,11.9,12.4,13.4,11.1z"/>
</g>
<path class="st1" d="M20.8,55.8c-3.4,2.1-6.4,4.7-7.5,8.8h12.3c0.7,0,1.2,0.5,1.2,1.2c0,0.7-0.5,1.2-1.2,1.2H13c0,0.5,0,1,0,1.5
	l-4.8,0.2C7.9,61.3,10.9,57,15,53.9C16.9,54.7,18.8,55.3,20.8,55.8z"/>
<path class="st1" d="M13.3,11.1c0.2,0.8,0.4,1.5,0.8,2.2h11.4c0.7,0,1.2,0.5,1.2,1.2c0,0.7-0.5,1.2-1.2,1.2h-9.9
	c2.2,2.7,5.4,4.5,8.5,6.3c6.3,3.6,12.5,7,12.5,15.9c0,3.8-1.1,6.6-3,8.9c-2.1,0.7-4.4,1.1-6.7,1.1c-0.7,0-1.4,0-2.1-0.1
	c3.5-2.2,6.4-4.6,6.8-8.7h-13c-0.7,0-1.2-0.5-1.2-1.2c0-0.7,0.5-1.2,1.2-1.2h12.9c-0.6-5.2-5.2-7.8-9.9-10.4
	c-4.9-2.7-9.8-5.5-12.2-10.8C10.6,13.8,11.9,12.4,13.3,11.1z"/>
</svg>
