<?xml version="1.0" encoding="utf-8"?>
<!-- Generator: Adobe Illustrator 16.0.0, SVG Export Plug-In . SVG Version: 6.00 Build 0)  -->
<!DOCTYPE svg PUBLIC "-//W3C//DTD SVG 1.1//EN" "http://www.w3.org/Graphics/SVG/1.1/DTD/svg11.dtd">
<svg version="1.1" id="Layer_1" xmlns="http://www.w3.org/2000/svg" xmlns:xlink="http://www.w3.org/1999/xlink" x="0px" y="0px"
	 width="57.1px" height="76px" viewBox="0 0 57.1 76" style="enable-background:new 0 0 57.1 76;" xml:space="preserve">
<style type="text/css">
<![CDATA[
	.st0{fill-rule:evenodd;clip-rule:evenodd;fill:#ABCD4B;}
	.st1{fill-rule:evenodd;clip-rule:evenodd;fill:#63C3D3;}
]]>
</style>
<g>
	<path class="st0" d="M20.7,54.3L5.5,53.5l-5.5-8L6.3,38l14.4,0.8V54.3z M32,31v37.9c0,0.7,0.5,1.2,1.2,1.2h2.3
		c1.8,0,3.3,1.5,3.3,3.3V76h-22v-2.6c0-1.8,1.5-3.3,3.3-3.3h2.3c0.7,0,1.2-0.5,1.2-1.2V31.5L32,31z M23.7,4.2c0-2.3,1.9-4.2,4.2-4.2
		C30.1,0,32,1.9,32,4.2v5.5l-8.3,0.4V4.2z M55.4,56.1L35,55V39.5l21.2,1.1l-6.3,7.4L55.4,56.1z"/>
</g>
<g>
	<polygon class="st1" points="0.9,14.2 25.9,12.9 50.8,11.6 57.1,19 51.6,27 26.7,28.4 1.8,29.7 7.3,21.6 	"/>
</g>
</svg>
