<?xml version="1.0" encoding="utf-8"?>
<!-- Generator: Adobe Illustrator 16.0.0, SVG Export Plug-In . SVG Version: 6.00 Build 0)  -->
<!DOCTYPE svg PUBLIC "-//W3C//DTD SVG 1.1//EN" "http://www.w3.org/Graphics/SVG/1.1/DTD/svg11.dtd">
<svg version="1.1" id="Layer_1" xmlns="http://www.w3.org/2000/svg" xmlns:xlink="http://www.w3.org/1999/xlink" x="0px" y="0px"
	 width="72.3px" height="72.3px" viewBox="0 0 72.3 72.3" style="enable-background:new 0 0 72.3 72.3;" xml:space="preserve">
<style type="text/css">
<![CDATA[
	.st0{fill:#E58847;}
	.st1{fill-rule:evenodd;clip-rule:evenodd;fill:#ABCD4B;}
]]>
</style>
<g>
	<path class="st0" d="M50.6,72.3H21.8c-0.9,0-1.7-0.8-1.7-1.7c0-0.3,0.1-0.5,0.2-0.8l12.2-29.2L2,46.4c-0.9,0.2-1.8-0.4-2-1.4
		c-0.2-0.9,0.4-1.7,1.2-1.9v0L35.3,34c0,0,0,0,0.1,0l34.8-9.3c0.9-0.2,1.8,0.3,2.1,1.2c0.2,0.9-0.3,1.8-1.1,2L39.2,39.1L52.1,70
		c0.4,0.9-0.1,1.9-0.9,2.2C51,72.3,50.8,72.3,50.6,72.3L50.6,72.3L50.6,72.3z M46.5,65.3H25.8l-1.5,3.7H48L46.5,65.3z M27.3,61.9
		h17.8l-8.9-21.3L27.3,61.9z"/>
</g>
<g>
	<path class="st1" d="M64.1,4.3c4.5,0,8.2,3.7,8.2,8.2c0,4.5-3.7,8.2-8.2,8.2s-8.2-3.7-8.2-8.2C55.9,8,59.6,4.3,64.1,4.3z M6.2,0
		c3.4,0,6.2,2.8,6.2,6.2c0,3-2.1,5.5-4.9,6.1c2.8,0.6,4.9,3.1,4.9,6.1c0,3-2.1,5.5-4.9,6.1c2.8,0.6,4.9,3.1,4.9,6.1
		c0,3.4-2.8,6.2-6.2,6.2c-3.4,0-6.2-2.8-6.2-6.2c0-3,2.1-5.5,4.9-6.1C2.1,23.8,0,21.3,0,18.4c0-3,2.1-5.5,4.9-6.1
		C2.1,11.7,0,9.2,0,6.2C0,2.8,2.8,0,6.2,0z"/>
</g>
</svg>
