<?xml version="1.0" encoding="utf-8"?>
<!-- Generator: Adobe Illustrator 16.0.0, SVG Export Plug-In . SVG Version: 6.00 Build 0)  -->
<!DOCTYPE svg PUBLIC "-//W3C//DTD SVG 1.1//EN" "http://www.w3.org/Graphics/SVG/1.1/DTD/svg11.dtd">
<svg version="1.1" id="Layer_1" xmlns="http://www.w3.org/2000/svg" xmlns:xlink="http://www.w3.org/1999/xlink" x="0px" y="0px"
	 width="72.2px" height="66.8px" viewBox="0 0 72.2 66.8" style="enable-background:new 0 0 72.2 66.8;" xml:space="preserve">
<style type="text/css">
<![CDATA[
	.st0{fill:#ABCD4B;}
	.st1{fill:#63C3D3;}
]]>
</style>
<g>
	<polygon class="st0" points="32.3,41.1 36.4,46.4 40.3,41.1 42.1,17 52.5,17 36.4,0 20.1,16.8 30.8,16.9 	"/>
	<path class="st1" d="M36.4,55c0,0,7.9-16.5,18.5-23.4c-2.2-6.2-4.1-9.9-4.1-9.9l21.5,9l-9,20.7l-4.6-9.5c0,0-15.3,8.6-19.1,22.7
		c-3.1,4.7-6.1,0.5-6.1,0.5s-2-13.3-19.5-23.3c-3.6,8.7-4.6,10.1-4.6,10.1L0,30.1l21.4-8.4l-3.3,10.2C18.1,31.8,28.1,37.5,36.4,55z"
		/>
</g>
</svg>
