<?xml version="1.0" encoding="utf-8"?>
<!-- Generator: Adobe Illustrator 16.0.0, SVG Export Plug-In . SVG Version: 6.00 Build 0)  -->
<!DOCTYPE svg PUBLIC "-//W3C//DTD SVG 1.1//EN" "http://www.w3.org/Graphics/SVG/1.1/DTD/svg11.dtd">
<svg version="1.1" id="Layer_1" xmlns="http://www.w3.org/2000/svg" xmlns:xlink="http://www.w3.org/1999/xlink" x="0px" y="0px"
	 width="78.7px" height="78.7px" viewBox="0 0 78.7 78.7" style="enable-background:new 0 0 78.7 78.7;" xml:space="preserve">
<style type="text/css">
<![CDATA[
	.st0{fill-rule:evenodd;clip-rule:evenodd;fill:#E58847;}
	.st1{fill:#63C3D3;}
]]>
</style>
<g>
	<path class="st1" d="M31.2,24l1-4.1l-15.9,2.2c0-0.2,0-0.4,0-0.6c0-1.1-0.2-2.1-0.5-3L33,16.1l0.9-3.9c1,0.5,2.1,0.7,3.2,0.7
		c0.1,0,0.2,0,0.4,0L37,15.5l16.6-2.3c-0.1,1.2,0.1,2.5,0.5,3.6l-18,2.5l-1.3,5.5C33.7,24.3,32.5,24,31.2,24z M10.4,42.6l12.4-7.3
		c0.4,1.2,1,2.3,1.9,3.2l-12.3,7.2C12,44.5,11.3,43.4,10.4,42.6z M22.7,30.6l-8.2-3.9c0.7-1,1.3-2.1,1.6-3.3l8.2,3.9
		C23.5,28.3,22.9,29.4,22.7,30.6z M54,42.7c0.6-2.7,1.2-5.5,1.8-8.3H39.5c0.3-1.2,0.3-2.5,0-3.7h17.1c0.7-3,1.4-6,2-9
		c1.2,0.5,2.3,0.7,3.6,0.7c-0.6,2.7-1.2,5.5-1.8,8.3H66c-0.1,0.6-0.2,1.2-0.2,1.8s0.1,1.2,0.2,1.8h-6.5c-0.7,3.1-1.4,6.1-2,9.1
		C56.5,42.9,55.2,42.6,54,42.7z M74.4,40.2c-2.2,6.6-8.1,9.1-14.5,9.7c0.2-0.5,0.3-1.1,0.3-1.7c0-0.7-0.1-1.4-0.4-2
		c4.6-0.5,8.9-2,10.8-6.5C71.8,40.2,73.1,40.4,74.4,40.2z M69.5,18.2c1.7,2,3.1,4.3,4.1,6.7c-1.3,0-2.5,0.3-3.6,0.8
		c-0.8-1.7-1.8-3.3-3-4.8C68,20.2,68.9,19.3,69.5,18.2z M44.8,4.2c3.6,0.7,7.4,2,11.1,3.7C55,8.8,54.4,9.8,54,11
		c-3.1-1.5-6.4-2.5-9.5-3.2C44.8,6.7,45,5.4,44.8,4.2z M11.5,13.8c5-4.8,11.3-8.1,18.1-9.6c-0.2,1.2,0,2.5,0.4,3.7
		c-5.8,1.3-11.2,4.2-15.6,8.2C13.6,15.2,12.6,14.4,11.5,13.8z M1,41.8c-0.5-4.6,0-9.2,1.4-13.6c1,0.8,2.1,1.3,3.4,1.6
		C4.7,33.4,4.3,37,4.6,40.6C3.2,40.7,2,41.1,1,41.8z M16.5,62.5c-4.2-1-7.7-3.2-10.4-6.7c1.3-0.2,2.6-0.7,3.6-1.4
		c2,2.2,4.4,3.7,7.2,4.4C16.4,60,16.2,61.3,16.5,62.5z M27,59.2c0.2,0,2.3-0.4,2.3-0.4c1.3-0.3,2.5,1,2.1,2.3l-4.7,17.6h-3.8l4-14.8
		c0.4-0.8,0.6-1.6,0.6-2.5C27.5,60.6,27.3,59.8,27,59.2z M49.4,50.1l-22,0l-2.2,6.8c-0.9-0.7-2.1-1.1-3.3-1.1c-0.1,0-0.1,0-0.2,0
		l1.8-5.7H12.7c0.3-1.2,0.3-2.5,0-3.7l12,0l2-6.4c1.1,0.6,2.2,1,3.5,1.1l-1.7,5.3l20,0L37,38.8c0.9-0.9,1.6-1.9,2-3.1l12.2,8.1
		c-0.2,0.2-0.4,0.3-0.6,0.5C49.2,45.8,48.7,48.1,49.4,50.1z M29.3,78.7l4.4-16c1.2-4.5,4.6-5.5,8.6-6.6c2.7-0.8,5.8-1.7,8.2-4.3
		c0.1,0.1,0.2,0.2,0.3,0.3c0.8,0.8,1.8,1.4,3,1.5c-3.1,3.8-7,4.9-10.5,5.9c-2.9,0.8-5.4,1.5-6,4l-4.1,15H29.3z"/>
</g>
<g>
	<path class="st0" d="M73.5,27.4c2.9,0,5.2,2.3,5.2,5.2c0,2.9-2.3,5.2-5.2,5.2c-2.9,0-5.2-2.3-5.2-5.2
		C68.2,29.7,70.6,27.4,73.5,27.4z M62.1,7.7c3.4,0,6.2,2.8,6.2,6.1c0,3.4-2.8,6.1-6.2,6.1c-3.4,0-6.1-2.8-6.1-6.1
		C55.9,10.4,58.7,7.7,62.1,7.7z M37.2,0c2.9,0,5.2,2.3,5.2,5.2c0,2.9-2.3,5.2-5.2,5.2c-2.9,0-5.2-2.3-5.2-5.2C32,2.3,34.3,0,37.2,0z
		 M5.2,43c2.9,0,5.2,2.3,5.2,5.2s-2.3,5.2-5.2,5.2c-2.9,0-5.2-2.3-5.2-5.2S2.3,43,5.2,43z M7.7,15.4c3.4,0,6.1,2.8,6.1,6.1
		c0,3.4-2.8,6.1-6.1,6.1c-3.4,0-6.1-2.8-6.1-6.1C1.5,18.1,4.3,15.4,7.7,15.4z M31,26.4c3.4,0,6.1,2.8,6.1,6.1c0,3.4-2.8,6.1-6.1,6.1
		c-3.4,0-6.1-2.8-6.1-6.1C24.9,29.2,27.7,26.4,31,26.4z M21.9,58.3c1.7,0,3.1,1.4,3.1,3.1c0,1.7-1.4,3.1-3.1,3.1
		c-1.7,0-3.1-1.4-3.1-3.1C18.8,59.7,20.2,58.3,21.9,58.3z M54.6,45.2c1.7,0,3.1,1.4,3.1,3.1s-1.4,3.1-3.1,3.1
		c-1.7,0-3.1-1.4-3.1-3.1S52.9,45.2,54.6,45.2z"/>
</g>
</svg>
