<?xml version="1.0" encoding="utf-8"?>
<!-- Generator: Adobe Illustrator 16.0.0, SVG Export Plug-In . SVG Version: 6.00 Build 0)  -->
<!DOCTYPE svg PUBLIC "-//W3C//DTD SVG 1.1//EN" "http://www.w3.org/Graphics/SVG/1.1/DTD/svg11.dtd">
<svg version="1.1" id="Layer_1" xmlns="http://www.w3.org/2000/svg" xmlns:xlink="http://www.w3.org/1999/xlink" x="0px" y="0px"
	 width="84.8px" height="84.8px" viewBox="0 0 84.8 84.8" style="enable-background:new 0 0 84.8 84.8;" xml:space="preserve">
<style type="text/css">
<![CDATA[
	.st0{fill-rule:evenodd;clip-rule:evenodd;fill:#E58847;}
	.st1{fill-rule:evenodd;clip-rule:evenodd;fill:#63C3D3;}
]]>
</style>
<g>
	<path class="st0" d="M34.8,66.2h24.5l-3.5-5.5c-1.9-3.1-1-7.2,2.1-9.1c2.7-1.7,6.2-1.1,8.3,1.1v-18h-9.7c0.9,1.3,1.4,2.9,1.4,4.6
		c0,2.3-0.9,4.4-2.4,5.9c-1.5,1.5-3.6,2.4-5.9,2.4c-2.3,0-4.4-0.9-5.9-2.4c-1.5-1.5-2.4-3.6-2.4-5.9c0-1.7,0.5-3.3,1.4-4.6h-8V47H31
		c-0.2-0.3-0.4-0.6-0.7-0.9c-0.9-0.9-2.1-1.5-3.5-1.5c-1.4,0-2.6,0.6-3.5,1.5c-0.9,0.9-1.5,2.1-1.5,3.5s0.6,2.6,1.5,3.5
		c0.9,0.9,2.1,1.5,3.5,1.5c1.4,0,2.6-0.6,3.5-1.5c0.3-0.3,0.5-0.6,0.7-0.9h3.7V66.2z M31.5,0H3.3C1.5,0,0,1.5,0,3.3v28.1h9.7
		c-0.9-1.3-1.4-2.9-1.4-4.6c0-2.3,0.9-4.4,2.4-5.9c1.5-1.5,3.6-2.4,5.9-2.4c2.3,0,4.4,0.9,5.9,2.4c1.5,1.5,2.4,3.6,2.4,5.9
		c0,1.7-0.5,3.3-1.4,4.6h8V19.2h3.7c0.2,0.3,0.4,0.6,0.7,0.9c0.9,0.9,2.1,1.5,3.5,1.5s2.6-0.6,3.5-1.5c0.9-0.9,1.5-2.1,1.5-3.5
		c0-1.4-0.6-2.6-1.5-3.5c-0.9-0.9-2.1-1.5-3.5-1.5s-2.6,0.6-3.5,1.5c-0.3,0.3-0.5,0.6-0.7,0.9h-3.7V0z"/>
</g>
<g>
	<path class="st1" d="M0,34.8v28.1c0,1.8,1.5,3.3,3.3,3.3h28.1v-9.7c-1.3,0.9-2.9,1.4-4.6,1.4c-2.3,0-4.4-0.9-5.9-2.4
		c-1.5-1.5-2.4-3.6-2.4-5.9c0-2.3,0.9-4.4,2.4-5.9c1.5-1.5,3.6-2.4,5.9-2.4c1.7,0,3.3,0.5,4.6,1.4v-8H19.2V31
		c0.3-0.2,0.6-0.4,0.9-0.7c0.9-0.9,1.5-2.1,1.5-3.5s-0.6-2.6-1.5-3.5c-0.9-0.9-2.1-1.5-3.5-1.5s-2.6,0.6-3.5,1.5
		c-0.9,0.9-1.5,2.1-1.5,3.5s0.6,2.6,1.5,3.5c0.3,0.3,0.6,0.5,0.9,0.7v3.7H0z M66.2,31.5V3.3c0-1.8-1.5-3.3-3.3-3.3H34.8v9.7
		c1.3-0.9,2.9-1.4,4.6-1.4c2.3,0,4.4,0.9,5.9,2.4c1.5,1.5,2.4,3.6,2.4,5.9c0,2.3-0.9,4.4-2.4,5.9s-3.6,2.4-5.9,2.4
		c-1.7,0-3.3-0.5-4.6-1.4v8H47v3.7c-0.3,0.2-0.6,0.4-0.9,0.7c-0.9,0.9-1.5,2.1-1.5,3.5s0.6,2.6,1.5,3.5c0.9,0.9,2.1,1.5,3.5,1.5
		s2.6-0.6,3.5-1.5c0.9-0.9,1.5-2.1,1.5-3.5s-0.6-2.6-1.5-3.5c-0.3-0.3-0.6-0.5-0.9-0.7v-3.7H66.2z"/>
</g>
<g>
	<path class="st1" d="M70,52.4l8.1,5.8c1.4,1,2.4,2.3,2.5,4l1.2,16.6l3,6H69.9l-0.8-2.2l-3.5-3.9c-0.7-0.8-1.1-1.7-1.3-2.7
		l-1.5-10.3L58.7,59c-1-1.5-0.5-3.6,1-4.5c1.5-1,3.6-0.5,4.5,1.1l5.2,8.3l0.7-1.5l-0.4-2.1l-0.3-0.4v-7.8
		C69.6,52.2,69.8,52.2,70,52.4z"/>
</g>
</svg>
