<?xml version="1.0" encoding="utf-8"?>
<!-- Generator: Adobe Illustrator 16.0.0, SVG Export Plug-In . SVG Version: 6.00 Build 0)  -->
<!DOCTYPE svg PUBLIC "-//W3C//DTD SVG 1.1 Basic//EN" "http://www.w3.org/Graphics/SVG/1.1/DTD/svg11-basic.dtd">
<svg version="1.1" baseProfile="basic" id="Layer_1"
	 xmlns="http://www.w3.org/2000/svg" xmlns:xlink="http://www.w3.org/1999/xlink" x="0px" y="0px" width="44.9px" height="44.5px"
	 viewBox="0 0 44.9 44.5" xml:space="preserve">
<path fill="#61a4be" d="M38.4,8.4C32.6,2.5,28.6,0.3,24.7,0c-4-0.2-8.4,0.2-15.8,5.9S-3.5,21,3.1,32.5c6.6,11.6,14.4,11.8,16.1,11.8
	c1.7,0,3.1,0.4,5.5,0c2.4-0.4,16.1-3.9,19-15.2C46.5,17.8,44.2,14.3,38.4,8.4z M31.8,23.3l-9.2,7L13,23c-1.1-0.8-1.3-2.3-0.5-3.4
	s2.3-1.3,3.4-0.5l6.6,5l6.3-4.8c1.1-0.8,2.6-0.6,3.4,0.5C33.1,20.9,32.9,22.5,31.8,23.3z"/>
</svg>
