<?xml version="1.0" encoding="utf-8"?>
<!-- Generator: Adobe Illustrator 16.0.0, SVG Export Plug-In . SVG Version: 6.00 Build 0)  -->
<!DOCTYPE svg PUBLIC "-//W3C//DTD SVG 1.1//EN" "http://www.w3.org/Graphics/SVG/1.1/DTD/svg11.dtd">
<svg version="1.1" id="Layer_1" xmlns="http://www.w3.org/2000/svg" xmlns:xlink="http://www.w3.org/1999/xlink" x="0px" y="0px"
	 width="43.4px" height="61.6px" viewBox="0 0 43.4 61.6" style="enable-background:new 0 0 43.4 61.6;" xml:space="preserve">
<style type="text/css">
<![CDATA[
	.st0{fill-rule:evenodd;clip-rule:evenodd;fill:#E58847;}
	.st1{fill-rule:evenodd;clip-rule:evenodd;fill:#63C3D3;}
]]>
</style>
<g>
	<path class="st0" d="M15.6,20.9l3.5,3.2c5.4,6-0.2,6,5.2,0l3.5-3.2c0.5-0.4,0.5-1.1,0.3-1.6c-0.2-0.6-0.8-0.9-1.4-0.9l-9.9,0
		c-0.6,0-1.1,0.3-1.4,0.9C15.1,19.9,15.2,20.5,15.6,20.9z"/>
</g>
<g>
	<path class="st1" d="M0,55h3.5v-2c0-6.3,2.1-11.7,6.3-16.4l3.6-4c0.9-1,0.9-2.6,0-3.6C10,25.2,7,22.3,5.1,17.4
		c-1-2.7-1.6-5.7-1.6-8.8v-2H0V2.4C0,1.1,1,0,2.4,0H41c1.3,0,2.4,1.1,2.4,2.4v4.2h-3.6v2c0,6.3-2.1,11.7-6.2,16.4L30,29
		c-0.9,1-0.9,2.6,0,3.6c3.4,3.8,6.4,6.6,8.3,11.5c1,2.7,1.5,5.7,1.5,8.8l0,2h3.6v4.2c0,1.3-1.1,2.4-2.4,2.4H2.4
		c-1.3,0-2.4-1.1-2.4-2.4V55z M6.9,6.6c0,3.6,0,6.1,1.3,9.5c0.9,2.3,2.2,4.5,4,6.5l3.6,4c2.2,2.4,2.2,6.1,0,8.5l-3.6,4
		c-3.6,4-5.3,8.6-5.3,13.9v2h29.6c0-3.6,0-6.1-1.3-9.5c-0.9-2.3-2.2-4.5-4-6.5l-3.6-4c-2.2-2.4-2.2-6.1,0-8.5l3.6-4
		c3.6-4,5.3-8.6,5.3-13.9v-2H6.9L6.9,6.6z"/>
</g>
<g>
	<path class="st0" d="M11.9,48.4l9.9-9.4l9.9,9.4c1.1,1.1,0,3-1.5,3H13.4C11.9,51.4,10.8,49.4,11.9,48.4z"/>
</g>
</svg>
