<?xml version="1.0" encoding="utf-8"?>
<!-- Generator: Adobe Illustrator 16.0.0, SVG Export Plug-In . SVG Version: 6.00 Build 0)  -->
<!DOCTYPE svg PUBLIC "-//W3C//DTD SVG 1.1//EN" "http://www.w3.org/Graphics/SVG/1.1/DTD/svg11.dtd">
<svg version="1.1" id="Layer_1" xmlns="http://www.w3.org/2000/svg" xmlns:xlink="http://www.w3.org/1999/xlink" x="0px" y="0px"
	 width="69.8px" height="69.8px" viewBox="0 0 69.8 69.8" style="enable-background:new 0 0 69.8 69.8;" xml:space="preserve">
<style type="text/css">
<![CDATA[
	.st0{fill-rule:evenodd;clip-rule:evenodd;fill:#E58847;}
	.st1{fill-rule:evenodd;clip-rule:evenodd;fill:#63C3D3;}
]]>
</style>
<g>
	<path class="st1" d="M32.1,45.1c4.1,0,7.4-3.3,7.4-7.4c0-0.7-0.1-1.3-0.3-2c-1.5,1.5-3,3-4.5,4.5c-1.4,1.4-3.7,1.4-5.1,0
		c-1.4-1.4-1.4-3.7,0-5.1c1.5-1.5,3-3,4.6-4.5c-0.6-0.2-1.3-0.3-2-0.3c-4.1,0-7.4,3.3-7.4,7.4C24.7,41.8,28,45.1,32.1,45.1z
		 M43.3,21.4c-3.2-2.2-7-3.5-11.2-3.5c-5.5,0-10.4,2.2-14,5.8c-3.6,3.6-5.8,8.5-5.8,14c0,5.5,2.2,10.4,5.8,14
		c3.6,3.6,8.5,5.8,14,5.8c5.5,0,10.4-2.2,14-5.8c3.6-3.6,5.8-8.5,5.8-14c0-4.1-1.3-8-3.5-11.2l-4.8,4.8c1.1,1.9,1.7,4.1,1.7,6.4
		c0,3.6-1.5,7-3.9,9.3c-2.4,2.4-5.7,3.9-9.3,3.9c-3.7,0-7-1.5-9.3-3.9c-2.4-2.4-3.9-5.7-3.9-9.3c0-3.7,1.5-7,3.9-9.3
		c2.4-2.4,5.7-3.9,9.3-3.9c2.3,0,4.5,0.6,6.4,1.7L43.3,21.4z M52,12.6c-5.5-4.4-12.4-7-20-7c-8.9,0-16.9,3.6-22.7,9.4
		C3.6,20.8,0,28.8,0,37.7c0,8.9,3.6,16.9,9.4,22.7c5.8,5.8,13.8,9.4,22.7,9.4c8.9,0,16.9-3.6,22.7-9.4c5.8-5.8,9.4-13.8,9.4-22.7
		c0-7.5-2.6-14.5-7-20l-4.7,4.7c3.2,4.3,5.1,9.5,5.1,15.3c0,7-2.9,13.4-7.5,18c-4.6,4.6-11,7.5-18,7.5c-7,0-13.4-2.9-18-7.5
		c-4.6-4.6-7.5-11-7.5-18c0-7,2.9-13.4,7.5-18c4.6-4.6,11-7.5,18-7.5c5.7,0,11,1.9,15.3,5.1L52,12.6z"/>
</g>
<g>
	<path class="st0" d="M33.1,38.7l23.6-23.4l6.6,0c0.2,0,0.3-0.1,0.5-0.2L69.6,9c0.4-0.4,0.1-1-0.5-1l-5.2,0l0.4-0.4
		c1.3-1.3-0.7-3.3-2-2l-0.4,0.4l0-5.2c0-0.6-0.7-0.8-1.1-0.4L55,6.1c-0.1,0.1-0.2,0.3-0.2,0.5v6.5C46.9,21,38.9,28.8,31.1,36.7
		C29.8,38,31.8,40,33.1,38.7z"/>
</g>
</svg>
