<?xml version="1.0" encoding="utf-8"?>
<!-- Generator: Adobe Illustrator 16.0.0, SVG Export Plug-In . SVG Version: 6.00 Build 0)  -->
<!DOCTYPE svg PUBLIC "-//W3C//DTD SVG 1.1//EN" "http://www.w3.org/Graphics/SVG/1.1/DTD/svg11.dtd">
<svg version="1.1" id="Layer_1" xmlns="http://www.w3.org/2000/svg" xmlns:xlink="http://www.w3.org/1999/xlink" x="0px" y="0px"
	 width="68.7px" height="61px" viewBox="0 0 68.7 61" style="enable-background:new 0 0 68.7 61;" xml:space="preserve">
<style type="text/css">
<![CDATA[
	.st0{fill-rule:evenodd;clip-rule:evenodd;fill:#E58847;}
	.st1{fill-rule:evenodd;clip-rule:evenodd;fill:#63C3D3;}
]]>
</style>
<g>
	<path class="st0" d="M55.1,32.7c-0.3-0.4-0.2-1,0.2-1.3c0.4-0.3,1-0.2,1.3,0.2l2.1,2.8c0.5-0.7,1-1.4,1.5-2c0.8-1,1.6-1.9,2.6-2.7
		c0.4-0.3,0.9-0.3,1.3,0c0.3,0.4,0.3,0.9,0,1.3c-0.8,0.8-1.6,1.6-2.4,2.5c-0.7,0.9-1.4,1.9-2,2.9c-0.1,0.1-0.1,0.2-0.3,0.3
		c-0.4,0.3-1,0.2-1.3-0.2L55.1,32.7z M54.4,28.6L54.4,28.6c0.1-0.1,0.2-0.2,0.3-0.3c1.2-1.2,3-2,4.9-2s3.6,0.8,4.9,2
		c0.1,0.1,0.2,0.2,0.3,0.3h0c1.1,1.2,1.7,2.8,1.7,4.5c0,1.7-0.6,3.3-1.7,4.5h0c-0.1,0.1-0.2,0.2-0.3,0.3c-1.2,1.2-3,2-4.9,2
		s-3.6-0.8-4.9-2c-0.1-0.1-0.2-0.2-0.3-0.3h0c-1.1-1.2-1.7-2.8-1.7-4.5C52.7,31.4,53.3,29.8,54.4,28.6z M42.4,47.6
		c-0.3-0.4-0.2-1,0.2-1.3c0.4-0.3,1-0.2,1.3,0.2l2.1,2.8c0.5-0.7,1-1.4,1.5-2c0.8-1,1.6-1.9,2.6-2.7c0.4-0.3,0.9-0.3,1.3,0
		c0.3,0.4,0.3,0.9,0,1.3c-0.8,0.8-1.6,1.6-2.4,2.5c-0.7,0.9-1.4,1.9-2,2.9c-0.1,0.1-0.1,0.2-0.3,0.3c-0.4,0.3-1,0.2-1.3-0.2
		L42.4,47.6z M46.9,54.9c1.9,0,3.6-0.8,4.9-2c0.1-0.1,0.2-0.2,0.3-0.3h0c1.1-1.2,1.7-2.8,1.7-4.5s-0.6-3.3-1.7-4.5h0
		c-0.1-0.1-0.2-0.2-0.3-0.3c-1.2-1.2-3-2-4.9-2s-3.6,0.8-4.9,2c-0.1,0.1-0.2,0.2-0.3,0.3h0c-1.1,1.2-1.7,2.8-1.7,4.5
		s0.6,3.3,1.7,4.5h0c0.1,0.1,0.2,0.2,0.3,0.3C43.2,54.2,45,54.9,46.9,54.9z M17.4,40.1c-0.3-0.4-0.2-1,0.2-1.3
		c0.4-0.3,1-0.2,1.3,0.2l2.1,2.8c0.5-0.7,1-1.4,1.5-2c0.8-1,1.6-1.9,2.6-2.7c0.4-0.3,0.9-0.3,1.3,0c0.3,0.4,0.3,0.9,0,1.3
		c-0.8,0.8-1.6,1.6-2.4,2.5c-0.7,0.9-1.4,1.9-2,2.9c-0.1,0.1-0.1,0.2-0.3,0.3c-0.4,0.3-1,0.2-1.3-0.2L17.4,40.1z M21.8,47.5
		c1.9,0,3.6-0.8,4.9-2c0.1-0.1,0.2-0.2,0.3-0.3h0c1.1-1.2,1.7-2.8,1.7-4.5c0-1.7-0.6-3.3-1.7-4.5h0c-0.1-0.1-0.2-0.2-0.3-0.3
		c-1.2-1.2-3-2-4.9-2c-1.9,0-3.6,0.8-4.9,2c-0.1,0.1-0.2,0.2-0.3,0.3h0c-1.1,1.2-1.7,2.8-1.7,4.5c0,1.7,0.6,3.3,1.7,4.5h0
		c0.1,0.1,0.2,0.2,0.3,0.3C18.2,46.7,19.9,47.5,21.8,47.5z"/>
</g>
<g>
	<path class="st1" d="M8.5,20.6c0-1.1,1.6-1.1,1.6,0c0,2.2,0.4,4.5-0.8,4.5C8,25.1,8.5,22.8,8.5,20.6z M21,20.6c0-1.1,1.6-1.1,1.6,0
		c0,2.2,0.4,4.5-0.8,4.5C20.6,25.1,21,22.8,21,20.6z M33.5,20.6c0-1.1,1.6-1.1,1.6,0c0,2.2,0.4,4.5-0.8,4.5
		C33.1,25.1,33.5,22.8,33.5,20.6z M46,20.6c0-1.1,1.6-1.1,1.6,0c0,2.2,0.4,4.5-0.8,4.5S46,22.8,46,20.6z M58.6,20.6
		c0-1.1,1.6-1.1,1.6,0c0,1.3,0.1,2.6,0,3.5c-0.2,0-0.4,0-0.7,0c-0.3,0-0.7,0-1,0.1C58.4,23.3,58.6,21.9,58.6,20.6z M50.3,8.6h-7.5
		v1.8c2,1.6,0.9,4.9-1.7,4.9c-2.6,0-3.7-3.3-1.7-4.9c0-3.6,0-3.7,0-8.7c0-2.3,3.4-2.3,3.4,0v3.7h7.5V8.6z M36.7,8.6h-7.5v1.8
		c2,1.6,0.9,4.9-1.7,4.9s-3.7-3.3-1.7-4.9c0-3.6,0-3.5,0-8.7c0-2.3,3.4-2.3,3.4,0v3.7h7.5V8.6z M23.1,8.6h-7.5v1.8
		c2,1.6,0.9,4.9-1.7,4.9s-3.7-3.3-1.7-4.9c0-3.5,0-3.8,0-8.7c0-2.3,3.4-2.3,3.4,0v3.7h7.5V8.6z M53.9,40.3v2.1
		c-0.5-0.6-1-1.1-1.6-1.6v-2.2C52.8,39.2,53.3,39.8,53.9,40.3z M38.3,45.2h-8.6c0.3-0.5,0.5-1.1,0.7-1.6H39
		C38.7,44,38.5,44.6,38.3,45.2z M56.5,10.4c2,1.6,0.9,4.9-1.7,4.9c-2.6,0-3.7-3.3-1.7-4.9c0-3.7,0-3.5,0-8.7c0-2.3,3.4-2.3,3.4,0
		v3.7h8.4c2.1,0,3.8,1.7,3.8,3.8v48c0,2.1-1.7,3.8-3.8,3.8L3.8,61C1.7,61,0,59.3,0,57.2v-48c0-2.1,1.7-3.8,3.8-3.8h5.7v3.2
		c-1.1,0-3.3-0.1-4.8,0C4,8.7,3.2,8.8,3.2,9.6v19h48.5c-0.3,0.5-0.5,1.1-0.7,1.6h-9.6v5.8H51c0.2,0.6,0.4,1.1,0.7,1.6H41.4v3.1
		c-0.6,0.5-1.2,1-1.6,1.6v-4.7h-9.4c-0.2-0.6-0.4-1.1-0.7-1.6h10.1v-5.8H28.9v4.7c-0.5-0.6-1-1.1-1.6-1.6v-3.1H16.4v3.1
		c-0.6,0.5-1.2,1-1.6,1.6v-4.7H3.2v5.8h10.7c-0.3,0.5-0.5,1.1-0.7,1.6h-10v5.8h10c0.2,0.6,0.4,1.1,0.7,1.6H3.2V51h11.5v-4.7
		c0.5,0.6,1,1.1,1.6,1.6V51h10.9v-3.1c0.6-0.5,1.2-1,1.6-1.6V51h9.4c0.2,0.6,0.4,1.1,0.7,1.6H3.2c0,1-0.1,2.7,0,3.9
		c0.1,0.7,0.2,1.5,1,1.5h60.2c0.5,0,1-0.5,1-1v-4.4H54.7c0.3-0.5,0.5-1.1,0.7-1.6h10v-5.8h-10c-0.2-0.6-0.4-1.1-0.7-1.6h10.7v-3.4
		c2-1.7,3.2-4.2,3.2-6.9c0-2.8-1.3-5.3-3.2-6.9V9.6c0-0.5-0.5-1-1-1h-7.9V10.4L56.5,10.4z"/>
</g>
</svg>
