<?xml version="1.0" encoding="utf-8"?>
<!-- Generator: Adobe Illustrator 16.0.0, SVG Export Plug-In . SVG Version: 6.00 Build 0)  -->
<!DOCTYPE svg PUBLIC "-//W3C//DTD SVG 1.1//EN" "http://www.w3.org/Graphics/SVG/1.1/DTD/svg11.dtd">
<svg version="1.1" id="Layer_1" xmlns="http://www.w3.org/2000/svg" xmlns:xlink="http://www.w3.org/1999/xlink" x="0px" y="0px"
	 width="68.2px" height="68.1px" viewBox="0 0 68.2 68.1" style="enable-background:new 0 0 68.2 68.1;" xml:space="preserve">
<style type="text/css">
<![CDATA[
	.st0{fill:#ABCD4B;}
	.st1{fill:#E2AFA1;}
	.st2{fill:#E58847;}
	.st3{fill:#B0DCE0;}
	.st4{fill:#B66137;}
	.st5{fill:#EEF0F1;}
	.st6{fill:#51A4B7;}
	.st7{fill:#8CA33B;}
	.st8{fill:#63C3D3;}
	.st9{fill:#6EBCCE;}
	.st10{fill:#D4DD9F;}
	.st11{fill:#DC7A35;}
]]>
</style>
<g>
	<path class="st0" d="M34.1,29.5c3.6-2.6,8-4.2,12.7-4.2c2.8,0,5.5,0.5,7.9,1.5c0.5-1.7,0.7-3.6,0.7-5.4C55.5,9.6,45.9,0,34.1,0
		C22.3,0,12.7,9.6,12.7,21.4c0,1.9,0.2,3.7,0.7,5.4c2.4-1,5.1-1.5,7.9-1.5C26.1,25.3,30.6,26.8,34.1,29.5z"/>
</g>
<g>
	<path class="st9" d="M25.5,46.7c0-1.9,0.2-3.7,0.7-5.4c-6.2-2.5-11-7.9-12.7-14.4C5.6,30,0,37.7,0,46.7c0,11.8,9.6,21.4,21.4,21.4
		c4.8,0,9.2-1.6,12.7-4.2C28.9,60,25.5,53.7,25.5,46.7z"/>
</g>
<g>
	<path class="st6" d="M26.2,41.3c1.2-4.8,4.1-8.9,7.9-11.7c-3.6-2.6-8-4.2-12.7-4.2c-2.8,0-5.5,0.5-7.9,1.5
		C15.1,33.4,19.9,38.7,26.2,41.3z"/>
</g>
<g>
	<path class="st11" d="M54.8,26.8c-1.7,6.6-6.5,12-12.7,14.4c0.5,1.7,0.7,3.6,0.7,5.4c0,7-3.4,13.3-8.6,17.2c3.6,2.6,8,4.2,12.7,4.2
		c11.8,0,21.4-9.5,21.4-21.4C68.2,37.7,62.7,30,54.8,26.8z"/>
</g>
<g>
	<path class="st7" d="M34.1,29.5c3.8,2.9,6.7,7,7.9,11.7c6.2-2.5,11-7.9,12.7-14.4c-2.4-1-5.1-1.5-7.9-1.5
		C42.1,25.3,37.7,26.8,34.1,29.5z"/>
</g>
<g>
	<path class="st4" d="M42.8,46.7c0-1.9-0.2-3.7-0.7-5.4c-2.4,1-5.1,1.5-7.9,1.5s-5.5-0.5-7.9-1.5c-0.5,1.7-0.7,3.6-0.7,5.4
		c0,7,3.4,13.3,8.6,17.2C39.4,60,42.8,53.7,42.8,46.7z"/>
</g>
<g>
	<path class="st5" d="M34.1,29.5c-3.8,2.9-6.7,7-7.9,11.7c2.4,1,5.1,1.5,7.9,1.5s5.5-0.5,7.9-1.5C40.8,36.5,38,32.4,34.1,29.5z"/>
</g>
<g>
	<path class="st0" d="M34.1,29.5c3.6-2.6,8-4.2,12.7-4.2c2.8,0,5.5,0.5,7.9,1.5c0.5-1.7,0.7-3.6,0.7-5.4C55.5,9.6,45.9,0,34.1,0
		C22.3,0,12.7,9.6,12.7,21.4c0,1.9,0.2,3.7,0.7,5.4c2.4-1,5.1-1.5,7.9-1.5C26.1,25.3,30.6,26.8,34.1,29.5z"/>
</g>
<g>
	<path class="st8" d="M25.5,46.7c0-1.9,0.2-3.7,0.7-5.4c-6.2-2.5-11-7.9-12.7-14.4C5.6,30,0,37.7,0,46.7c0,11.8,9.6,21.4,21.4,21.4
		c4.8,0,9.2-1.6,12.7-4.2C28.9,60,25.5,53.7,25.5,46.7z"/>
</g>
<g>
	<path class="st3" d="M26.2,41.3c1.2-4.8,4.1-8.9,7.9-11.7c-3.6-2.6-8-4.2-12.7-4.2c-2.8,0-5.5,0.5-7.9,1.5
		C15.1,33.4,19.9,38.7,26.2,41.3z"/>
</g>
<g>
	<path class="st2" d="M54.8,26.8c-1.7,6.6-6.5,12-12.7,14.4c0.5,1.7,0.7,3.6,0.7,5.4c0,7-3.4,13.3-8.6,17.2c3.6,2.6,8,4.2,12.7,4.2
		c11.8,0,21.4-9.5,21.4-21.4C68.2,37.7,62.7,30,54.8,26.8z"/>
</g>
<g>
	<path class="st10" d="M34.1,29.5c3.8,2.9,6.7,7,7.9,11.7c6.2-2.5,11-7.9,12.7-14.4c-2.4-1-5.1-1.5-7.9-1.5
		C42.1,25.3,37.7,26.8,34.1,29.5z"/>
</g>
<g>
	<path class="st1" d="M42.8,46.7c0-1.9-0.2-3.7-0.7-5.4c-2.4,1-5.1,1.5-7.9,1.5s-5.5-0.5-7.9-1.5c-0.5,1.7-0.7,3.6-0.7,5.4
		c0,7,3.4,13.3,8.6,17.2C39.4,60,42.8,53.7,42.8,46.7z"/>
</g>
</svg>
