<?xml version="1.0" encoding="utf-8"?>
<!-- Generator: Adobe Illustrator 16.0.0, SVG Export Plug-In . SVG Version: 6.00 Build 0)  -->
<!DOCTYPE svg PUBLIC "-//W3C//DTD SVG 1.1//EN" "http://www.w3.org/Graphics/SVG/1.1/DTD/svg11.dtd">
<svg version="1.1" id="Layer_1" xmlns="http://www.w3.org/2000/svg" xmlns:xlink="http://www.w3.org/1999/xlink" x="0px" y="0px"
	 width="109.1px" height="109.1px" viewBox="0 0 109.1 109.1" style="enable-background:new 0 0 109.1 109.1;" xml:space="preserve"
	>
<style type="text/css">
<![CDATA[
	.st0{fill-rule:evenodd;clip-rule:evenodd;fill:#ABCD4B;}
	.st1{fill-rule:evenodd;clip-rule:evenodd;fill:#63C3D3;}
	.st2{fill:#FFFFFF;stroke:#D8D8D8;stroke-width:6;stroke-miterlimit:10;}
]]>
</style>
<g>
	<circle class="st2" cx="54.6" cy="54.6" r="50.6"/>
	<path class="st0" d="M46.7,70.8L31.5,70L26,62l6.3-7.4l14.4,0.8V70.8z M58,47.6v37.9c0,0.7,0.5,1.2,1.2,1.2h2.3
		c1.8,0,3.3,1.5,3.3,3.3v2.6h-22V90c0-1.8,1.5-3.3,3.3-3.3h2.3c0.7,0,1.2-0.5,1.2-1.2V48L58,47.6z M49.7,20.7c0-2.3,1.9-4.2,4.2-4.2
		c2.3,0,4.2,1.9,4.2,4.2v5.5l-8.3,0.4V20.7z M81.4,72.6l-20.4-1.1V56.1l21.2,1.1l-6.3,7.4L81.4,72.6z"/>
</g>
<g>
	<polygon class="st1" points="26.9,30.8 51.9,29.5 76.8,28.1 83.1,35.6 77.6,43.6 52.7,44.9 27.7,46.2 33.3,38.2 	"/>
</g>
</svg>
