<?xml version="1.0" encoding="utf-8"?>
<!-- Generator: Adobe Illustrator 16.0.0, SVG Export Plug-In . SVG Version: 6.00 Build 0)  -->
<!DOCTYPE svg PUBLIC "-//W3C//DTD SVG 1.1//EN" "http://www.w3.org/Graphics/SVG/1.1/DTD/svg11.dtd">
<svg version="1.1" id="Layer_1" xmlns="http://www.w3.org/2000/svg" xmlns:xlink="http://www.w3.org/1999/xlink" x="0px" y="0px"
	 width="109.1px" height="109.1px" viewBox="0 0 109.1 109.1" style="enable-background:new 0 0 109.1 109.1;" xml:space="preserve"
	>
<style type="text/css">
<![CDATA[
	.st0{fill:#ABCD4B;}
	.st1{fill:#E2AFA1;}
	.st2{fill:#E58847;}
	.st3{fill:#B0DCE0;}
	.st4{fill:#B66137;}
	.st5{fill:#EEF0F1;}
	.st6{fill:#51A4B7;}
	.st7{fill:#8CA33B;}
	.st8{fill:#63C3D3;}
	.st9{fill:#6EBCCE;}
	.st10{fill:#D4DD9F;}
	.st11{fill:#DC7A35;}
	.st12{fill:#FFFFFF;stroke:#D8D8D8;stroke-width:6;stroke-miterlimit:10;}
]]>
</style>
<circle class="st12" cx="54.6" cy="54.6" r="50.6"/>
<g>
	<path class="st0" d="M54.6,47.4c3-2.2,6.7-3.6,10.7-3.6c2.4,0,4.6,0.5,6.7,1.3c0.4-1.5,0.6-3,0.6-4.6c0-10-8-18-18-18
		c-10,0-18,8-18,18c0,1.6,0.2,3.1,0.6,4.6c2.1-0.8,4.3-1.3,6.7-1.3C47.8,43.9,51.6,45.1,54.6,47.4z"/>
</g>
<g>
	<path class="st9" d="M47.3,61.9c0-1.6,0.2-3.1,0.6-4.6c-5.3-2.1-9.3-6.6-10.7-12.2c-6.6,2.6-11.3,9.1-11.3,16.7c0,10,8,18,18,18
		c4,0,7.7-1.3,10.7-3.6C50.1,73.1,47.3,67.8,47.3,61.9z"/>
</g>
<g>
	<path class="st6" d="M47.9,57.3c1-4,3.5-7.5,6.7-9.9c-3-2.2-6.7-3.6-10.7-3.6c-2.4,0-4.6,0.5-6.7,1.3
		C38.6,50.7,42.6,55.2,47.9,57.3z"/>
</g>
<g>
	<path class="st11" d="M72,45.1c-1.5,5.5-5.5,10.1-10.7,12.2c0.4,1.5,0.6,3,0.6,4.6c0,5.9-2.9,11.2-7.3,14.5c3,2.2,6.7,3.6,10.7,3.6
		c10,0,18-8,18-18C83.3,54.3,78.6,47.8,72,45.1z"/>
</g>
<g>
	<path class="st7" d="M54.6,47.4c3.2,2.4,5.6,5.9,6.7,9.9c5.3-2.1,9.3-6.6,10.7-12.2c-2.1-0.8-4.3-1.3-6.7-1.3
		C61.3,43.9,57.5,45.1,54.6,47.4z"/>
</g>
<g>
	<path class="st4" d="M61.8,61.9c0-1.6-0.2-3.1-0.6-4.6c-2.1,0.8-4.3,1.3-6.7,1.3c-2.4,0-4.6-0.5-6.7-1.3c-0.4,1.5-0.6,3-0.6,4.6
		c0,5.9,2.9,11.2,7.3,14.5C59,73.1,61.8,67.8,61.8,61.9z"/>
</g>
<g>
	<path class="st5" d="M54.6,47.4c-3.2,2.4-5.6,5.9-6.7,9.9c2.1,0.8,4.3,1.3,6.7,1.3c2.4,0,4.6-0.5,6.7-1.3
		C60.2,53.3,57.8,49.8,54.6,47.4z"/>
</g>
<g>
	<path class="st0" d="M54.6,47.4c3-2.2,6.7-3.6,10.7-3.6c2.4,0,4.6,0.5,6.7,1.3c0.4-1.5,0.6-3,0.6-4.6c0-10-8-18-18-18
		c-10,0-18,8-18,18c0,1.6,0.2,3.1,0.6,4.6c2.1-0.8,4.3-1.3,6.7-1.3C47.8,43.9,51.6,45.1,54.6,47.4z"/>
</g>
<g>
	<path class="st8" d="M47.3,61.9c0-1.6,0.2-3.1,0.6-4.6c-5.3-2.1-9.3-6.6-10.7-12.2c-6.6,2.6-11.3,9.1-11.3,16.7c0,10,8,18,18,18
		c4,0,7.7-1.3,10.7-3.6C50.1,73.1,47.3,67.8,47.3,61.9z"/>
</g>
<g>
	<path class="st3" d="M47.9,57.3c1-4,3.5-7.5,6.7-9.9c-3-2.2-6.7-3.6-10.7-3.6c-2.4,0-4.6,0.5-6.7,1.3
		C38.6,50.7,42.6,55.2,47.9,57.3z"/>
</g>
<g>
	<path class="st2" d="M72,45.1c-1.5,5.5-5.5,10.1-10.7,12.2c0.4,1.5,0.6,3,0.6,4.6c0,5.9-2.9,11.2-7.3,14.5c3,2.2,6.7,3.6,10.7,3.6
		c10,0,18-8,18-18C83.3,54.3,78.6,47.8,72,45.1z"/>
</g>
<g>
	<path class="st10" d="M54.6,47.4c3.2,2.4,5.6,5.9,6.7,9.9c5.3-2.1,9.3-6.6,10.7-12.2c-2.1-0.8-4.3-1.3-6.7-1.3
		C61.3,43.9,57.5,45.1,54.6,47.4z"/>
</g>
<g>
	<path class="st1" d="M61.8,61.9c0-1.6-0.2-3.1-0.6-4.6c-2.1,0.8-4.3,1.3-6.7,1.3c-2.4,0-4.6-0.5-6.7-1.3c-0.4,1.5-0.6,3-0.6,4.6
		c0,5.9,2.9,11.2,7.3,14.5C59,73.1,61.8,67.8,61.8,61.9z"/>
</g>
<g>
	<path class="st5" d="M54.6,47.4c-3.2,2.4-5.6,5.9-6.7,9.9c2.1,0.8,4.3,1.3,6.7,1.3c2.4,0,4.6-0.5,6.7-1.3
		C60.2,53.3,57.8,49.8,54.6,47.4z"/>
</g>
</svg>
