<?xml version="1.0" encoding="utf-8"?>
<!-- Generator: Adobe Illustrator 16.0.0, SVG Export Plug-In . SVG Version: 6.00 Build 0)  -->
<!DOCTYPE svg PUBLIC "-//W3C//DTD SVG 1.1//EN" "http://www.w3.org/Graphics/SVG/1.1/DTD/svg11.dtd">
<svg version="1.1" id="Layer_1" xmlns="http://www.w3.org/2000/svg" xmlns:xlink="http://www.w3.org/1999/xlink" x="0px" y="0px"
	 width="74.3px" height="74.3px" viewBox="0 0 74.3 74.3" style="enable-background:new 0 0 74.3 74.3;" xml:space="preserve">
<style type="text/css">
<![CDATA[
	.st0{fill:#E58847;}
	.st1{fill:#63C3D3;}
]]>
</style>
<g>
	<path class="st0" d="M27.5,59.6c-0.8,0.5-1.9,0.2-2.4-0.6c-0.5-0.8-0.2-1.9,0.6-2.4l9.7-5.6V39.8c0-1,0.8-1.7,1.7-1.7
		c1,0,1.7,0.8,1.7,1.7V51l9.7,5.6c0.8,0.5,1.1,1.5,0.6,2.4c-0.5,0.8-1.5,1.1-2.4,0.6L37.2,54L27.5,59.6z"/>
</g>
<g>
	<path class="st1" d="M47.2,23.7l2.2,11.1H25l2.2-11.1c0.9-4.3,6.1-6.2,10-6.2C41.1,17.5,46.3,19.4,47.2,23.7z"/>
</g>
<g>
	<circle class="st1" cx="37.2" cy="8.1" r="8.1"/>
</g>
<g>
	<path class="st1" d="M72.1,63.2l2.2,11.1H49.9l2.2-11.1c0.9-4.3,6.1-6.2,10-6.2C66.1,57,71.3,58.9,72.1,63.2z"/>
</g>
<g>
	<path class="st1" d="M62.1,39.5c-4.5,0-8.1,3.6-8.1,8.1c0,4.5,3.7,8.2,8.1,8.2s8.1-3.6,8.1-8.2C70.3,43.2,66.6,39.5,62.1,39.5z"/>
</g>
<g>
	<path class="st1" d="M22.3,63.2l2.2,11.1L0,74.3l2.2-11.1c0.9-4.3,6.1-6.2,10-6.2C16.2,57,21.4,58.9,22.3,63.2z"/>
</g>
<g>
	<path class="st1" d="M12.2,39.5c-4.5,0-8.1,3.6-8.1,8.1c0,4.5,3.6,8.2,8.1,8.2s8.1-3.6,8.1-8.2C20.4,43.2,16.7,39.5,12.2,39.5z"/>
</g>
</svg>
