<?xml version="1.0" encoding="utf-8"?>
<!-- Generator: Adobe Illustrator 16.0.0, SVG Export Plug-In . SVG Version: 6.00 Build 0)  -->
<!DOCTYPE svg PUBLIC "-//W3C//DTD SVG 1.1//EN" "http://www.w3.org/Graphics/SVG/1.1/DTD/svg11.dtd">
<svg version="1.1" id="Layer_1" xmlns="http://www.w3.org/2000/svg" xmlns:xlink="http://www.w3.org/1999/xlink" x="0px" y="0px"
	 width="134px" height="72px" viewBox="0 0 134 72" style="enable-background:new 0 0 134 72;" xml:space="preserve">
<g>
	<path d="M30.3,42.7c0.6-3.1,1.1-6.6,1.5-10.5C34.8,5,39.7,0,46.6,0c5.2,0,7.8,5,7.8,11.8c0,10.9-6.8,26.2-20.8,31.8
		c-1.5,7.1-3.5,12.1-5.8,15.7c7,2.5,12.3,6.2,19.2,6.2c5,0,6.6-3.3,7-5.5c1,0.2,2.1,0.5,3.1,0.8c-0.9,3.9-4.1,7.3-10.1,7.3
		c-7.6,0-13.8-4-20.6-6.7c-4,5.2-8.8,6.7-13.6,6.7c-3.8,0-6.6-1.8-6.6-5.2c0-2.9,2.7-6,8.5-6c3.9,0,7.2,0.5,10.2,1.5
		c1.9-3.2,3.6-7.5,4.9-13.5c-2.6,0.7-5.3,1.1-8.3,1.1C6.4,45.9,0,37.3,0,28.9C0,21,5.7,13.3,15.2,13.3c2.5,0,4.4,0.5,6.3,1.6
		c-0.5,1-1,2-1.5,3c-1.4-0.9-3-1.2-4.8-1.2c-7.7,0-12.3,6.1-12.3,12.6c0,7.1,5.6,14.8,18.7,14.8C24.8,44.1,27.7,43.6,30.3,42.7z
		 M24,60.2c-2.8-1-5.8-1.6-8.9-1.6c-3.9,0-6,2.3-6,4.4c0,1.7,1.5,3.3,4.3,3.3C17.2,66.3,20.8,64.7,24,60.2z M35.3,32.2
		c-0.4,3.2-0.8,6.1-1.3,8.7C46,34.9,51.3,20.5,51.3,11c0-5.3-1.6-9.2-4.7-9.2C42.3,1.8,38.1,6.1,35.3,32.2z"/>
	<path d="M56.2,26.2c-0.5,3-3.9,16.8-3.9,22.7c0,1.9,0.5,2.7,1.3,2.7c1.5,0,4.9-5.8,6.2-12.8c0.8-4.6,1.8-9,2.6-12.6h3.2
		c-1.9,9.3-3.8,17.9-3.8,22.9c0,1.8,0.5,2.5,1.2,2.5c1.8,0,4.1-4.4,7.1-12.3c0.2,0,1.1,0.3,1.1,0.6c-3.2,8.4-5.3,14.3-9.2,14.3
		c-2.2,0-3-2.6-3-6.4c0-0.4,0.1-0.8,0.1-1.2c-1.7,4.4-4.1,7.6-6.4,7.6s-3.2-2.5-3.2-6.3c0-7.3,3.1-19,3.6-21.7H56.2z"/>
	<path d="M78.7,38.5c1.5-2.5,2.3-5.3,2.3-7.3c0-1.9-0.7-3.3-1.9-3.3c-3.4,0-6.5,8.8-6.5,15.7c0,4.3,1.2,7.8,4.4,7.8
		c3.5-0.1,6.1-4.1,9.3-12.2c0.3,0,1.2,0.4,1.2,0.6l-0.6,1.4c-2.9,7.1-6.1,13.1-11.4,13.1c-4.2,0-5.9-4.4-5.9-9.9
		c0-8.2,4-18.6,9.7-18.6c2.9,0,4.1,2.6,4.1,5.9c0,2.6-0.8,5.6-2.2,8.2L78.7,38.5z"/>
	<path d="M83.9,53.9l0.2-2.2c0.2-3.5,1.3-7.2,1.5-8.6c1.9-12.6,4.5-28.6,7.4-34.4C94,6.5,95.8,6,97,6c1.6,0,2.6,0.9,2.6,2.9
		c0,4.6-4.4,13.8-9.1,23.9l-0.8,3.7c2.6-6.1,5.3-10.6,8.3-10.6c1.8,0,2.6,1.2,2.6,3c0,3.9-4.1,11.2-8.5,13.5c1.9,2.8,2,9.1,3.8,9.1
		c1.8,0,4.8-5.2,7.5-12.1c0.4,0,1.1,0.6,1.1,0.7c-0.2,0.6-0.4,1.2-0.7,1.8c-2.5,6.3-5.4,12.5-8.6,12.5c-4.1,0-4-8.1-5.3-11.1
		c-0.2,0-0.5,0.1-0.7,0.1c-0.2,0-0.4-0.1-0.5-0.1L87,53.9H83.9z M89.4,39.1l-0.3,1.6c0.5,0,1.1,0.1,1.6,0.4
		c3.2-1.9,7.1-8.7,7.1-11.5c0-0.7-0.2-1.2-0.9-1.3C95.2,28.3,92.7,32.1,89.4,39.1z M96.9,8C95,8,93,17.5,91.1,28.6
		c1.8-4.3,6.1-14.4,6.4-19.2C97.5,8.4,97.3,8,96.9,8z"/>
	<path d="M109.2,26.2c-0.7,3.4-3.9,16.3-3.9,22.7c0,1.9,0.5,2.7,1.3,2.7c4.5,0,7.2-18.9,8.6-25.4h3.2c-0.7,2.8-3.1,16.2-5,26.9
		c8.1-7.8,18-17.7,18-30.5c0-9.2-6-14-13.2-14c-5.3,0-10.5,2.9-13.1,8.9l-2.8-1.2c2.9-5.9,9-9.5,16-9.5c8.2,0,15.8,5.1,15.8,15.7
		c0,14.3-12.4,24.9-21.2,33.2l-1.3,7.2c-1,5.8-2.4,9.1-6.1,9.1c-1.8,0-3.5-1.1-3.5-4c0-3.8,3.2-7.4,7.8-11.8c0.4-2.7,1-5.5,1.4-8.2
		c-1.6,3.6-3.8,6.2-5.7,6.2c-2.4,0-3.2-2.4-3.2-6c0-6.7,3.2-19.8,3.6-22H109.2z M105.6,70.4c1.2,0,1.9-1.3,2.2-3.4l1.5-8.1
		c-3.4,3.5-5.3,6.3-5.3,9.2C104.1,69.6,104.8,70.4,105.6,70.4z"/>
</g>
</svg>
