<?xml version="1.0" encoding="utf-8"?>
<!-- Generator: Adobe Illustrator 16.0.0, SVG Export Plug-In . SVG Version: 6.00 Build 0)  -->
<!DOCTYPE svg PUBLIC "-//W3C//DTD SVG 1.1//EN" "http://www.w3.org/Graphics/SVG/1.1/DTD/svg11.dtd">
<svg version="1.1" id="Layer_1" xmlns="http://www.w3.org/2000/svg" xmlns:xlink="http://www.w3.org/1999/xlink" x="0px" y="0px"
	 width="34.4px" height="44.8px" viewBox="0 0 34.4 44.8" style="enable-background:new 0 0 34.4 44.8;" xml:space="preserve">
<style type="text/css">
<![CDATA[
	.st0{fill:#E8E8E8;}
	.st1{fill:#FFFFFF;}
	.st2{fill:#CC4B4C;}
	.st3{fill:#D8D8D8;}
]]>
</style>
<g>
	<path class="st0" d="M24.4,0H1.2C0.5,0,0,0.5,0,1.5V44c0,0.3,0.5,0.8,1.2,0.8h32.1c0.6,0,1.2-0.5,1.2-0.8V10.4
		c0-0.6-0.1-0.7-0.2-0.9l-9.3-9.3C24.8,0.1,24.6,0,24.4,0L24.4,0z M24.4,0"/>
	<path class="st3" d="M24.8,0.1v9.5h9.5L24.8,0.1z M24.8,0.1"/>
	<path class="st2" d="M10.4,26.7c-0.3,0-0.5-0.1-0.8-0.3c-0.8-0.6-0.9-1.3-0.9-1.8c0.1-1.3,1.8-2.7,4.8-4.1c1.2-2.6,2.3-5.9,3-8.6
		c-0.8-1.7-1.6-4-1-5.3c0.2-0.5,0.4-0.8,0.9-1c0.2-0.1,0.6-0.1,0.8-0.1c0.4,0,0.8,0.5,1,0.8c0.2,0.3,0.8,0.9-0.3,5.4
		c1.1,2.2,2.6,4.5,4.1,6c1.1-0.2,2-0.3,2.7-0.3c1.3,0,2,0.3,2.3,0.9c0.3,0.5,0.2,1.1-0.3,1.7c-0.4,0.6-1.1,1-1.8,1
		c-1,0-2.1-0.6-3.4-1.8c-2.3,0.5-4.9,1.3-7.1,2.3c-0.7,1.4-1.3,2.6-1.9,3.4C11.8,26.1,11.1,26.7,10.4,26.7L10.4,26.7z M12.5,22.6
		c-1.7,1-2.4,1.8-2.5,2.2c0,0.1,0,0.3,0.3,0.6C10.5,25.3,11.2,25,12.5,22.6L12.5,22.6z M23.4,19c0.7,0.5,0.8,0.8,1.2,0.8
		c0.2,0,0.7,0,1-0.4c0.1-0.2,0.2-0.3,0.2-0.3c-0.1-0.1-0.2-0.2-0.9-0.2C24.5,18.9,24,18.9,23.4,19L23.4,19z M17.5,13.7
		c-0.6,2-1.3,4.1-2.1,6.1c1.7-0.6,3.5-1.2,5.2-1.6C19.5,16.9,18.4,15.4,17.5,13.7L17.5,13.7z M17,7c-0.1,0-1.1,1.4,0.1,2.6
		C17.8,7.9,17,7,17,7L17,7z M17,7"/>
	<path class="st2" d="M33.2,44.8H1.2c-0.6,0-1.2-0.5-1.2-1.2V31.2h34.4v12.4C34.4,44.3,33.9,44.8,33.2,44.8L33.2,44.8z M33.2,44.8"
		/>
	<path class="st1" d="M8.7,42.4H7.4v-8.1h2.3c0.3,0,0.7,0.1,1,0.2c0.3,0.1,0.6,0.3,0.9,0.5c0.3,0.2,0.5,0.5,0.6,0.8
		c0.2,0.3,0.2,0.7,0.2,1c0,0.4-0.1,0.8-0.2,1.1c-0.1,0.3-0.3,0.6-0.6,0.8c-0.3,0.2-0.5,0.4-0.9,0.5c-0.3,0.1-0.7,0.2-1.2,0.2h-1
		V42.4z M8.7,35.3v3.2h1.2c0.2,0,0.3,0,0.5-0.1c0.2-0.1,0.3-0.1,0.4-0.3c0.1-0.1,0.2-0.3,0.3-0.5c0.1-0.2,0.1-0.5,0.1-0.8
		c0-0.1,0-0.3-0.1-0.5c0-0.2-0.1-0.3-0.2-0.5c-0.1-0.2-0.3-0.3-0.5-0.4c-0.2-0.1-0.5-0.2-0.8-0.2H8.7z M8.7,35.3"/>
	<path class="st1" d="M20.6,38.1c0,0.7-0.1,1.2-0.2,1.7c-0.1,0.5-0.3,0.9-0.5,1.2c-0.2,0.3-0.5,0.6-0.7,0.8
		c-0.3,0.2-0.5,0.3-0.8,0.4c-0.3,0.1-0.5,0.1-0.7,0.2c-0.2,0-0.4,0-0.5,0h-3.1v-8.1h2.4c0.7,0,1.3,0.1,1.8,0.3
		c0.5,0.2,0.9,0.5,1.3,0.9c0.3,0.4,0.6,0.8,0.8,1.2C20.5,37.2,20.6,37.7,20.6,38.1L20.6,38.1z M16.7,41.4c0.9,0,1.5-0.3,1.9-0.9
		c0.4-0.6,0.6-1.4,0.6-2.5c0-0.3,0-0.7-0.1-1c-0.1-0.3-0.2-0.6-0.5-0.9c-0.2-0.3-0.5-0.5-0.9-0.6c-0.4-0.2-0.9-0.2-1.5-0.2h-0.8v6.1
		H16.7z M16.7,41.4"/>
	<path class="st1" d="M23.8,35.3v2.5h3.4v0.9h-3.4v3.6h-1.3v-8.1h5v1H23.8z M23.8,35.3"/>
</g>
</svg>
