<?xml version="1.0" encoding="utf-8"?>
<!-- Generator: Adobe Illustrator 16.0.0, SVG Export Plug-In . SVG Version: 6.00 Build 0)  -->
<!DOCTYPE svg PUBLIC "-//W3C//DTD SVG 1.1//EN" "http://www.w3.org/Graphics/SVG/1.1/DTD/svg11.dtd">
<svg version="1.1" id="Layer_1" xmlns="http://www.w3.org/2000/svg" xmlns:xlink="http://www.w3.org/1999/xlink" x="0px" y="0px"
	 width="486px" height="630px" viewBox="0 0 486 630" style="enable-background:new 0 0 486 630;" xml:space="preserve">
<style type="text/css">
<![CDATA[
	.st0{fill:#FFFFFF;}
]]>
</style>
<g id="XMLID_798_">
	<path id="XMLID_799_" class="st0" d="M384.5,121.8C351,89.7,304.7,72,254.1,72c-77.3,0-124.9,31.7-151.1,58.3
		C70.6,163,52,206.5,52,249.6c0,54.1,22.6,95.6,60.5,111.1c2.5,1,5.1,1.6,7.6,1.6c8,0,14.3-5.2,16.5-13.6c1.3-4.8,4.2-16.7,5.5-21.8
		c2.8-10.2,0.5-15.1-5.5-22.2c-11-13-16.1-28.3-16.1-48.3c0-59.3,44.1-122.3,126-122.3c64.9,0,105.2,36.9,105.2,96.3
		c0,37.5-8.1,72.2-22.7,97.7C318.9,345.8,301,367,273.5,367c-11.9,0-22.6-4.9-29.3-13.4c-6.4-8.1-8.5-18.5-5.9-29.3
		c2.9-12.2,6.8-25,10.7-37.4c7-22.6,13.5-43.9,13.5-60.9c0-29.1-17.9-48.6-44.5-48.6c-33.8,0-60.3,34.3-60.3,78.2
		c0,21.5,5.7,37.6,8.3,43.8c-4.3,18-29.6,125.3-34.4,145.6c-2.8,11.8-19.5,105.1,8.2,112.5c31.1,8.4,58.9-82.5,61.7-92.8
		c2.3-8.3,10.3-39.9,15.2-59.3c15,14.5,39.2,24.2,62.7,24.2c44.3,0,84.2-20,112.3-56.2C419,338.3,434,289.3,434,235.5
		C434,193.5,415.9,152,384.5,121.8z"/>
</g>
</svg>
