<?xml version="1.0" encoding="utf-8"?>
<!-- Generator: Adobe Illustrator 16.0.0, SVG Export Plug-In . SVG Version: 6.00 Build 0)  -->
<!DOCTYPE svg PUBLIC "-//W3C//DTD SVG 1.1//EN" "http://www.w3.org/Graphics/SVG/1.1/DTD/svg11.dtd">
<svg version="1.1" id="Layer_1" xmlns="http://www.w3.org/2000/svg" xmlns:xlink="http://www.w3.org/1999/xlink" x="0px" y="0px"
	 width="486px" height="486px" viewBox="0 72 486 486" style="enable-background:new 0 72 486 486;" xml:space="preserve">
<style type="text/css">
<![CDATA[
	.st0{fill:#FFFFFF;}
]]>
</style>
<g id="XMLID_504_">
	<path id="XMLID_505_" class="st0" d="M62.4,72h361.2c34.3,0,62.4,28.1,62.4,62.4v361.2c0,34.3-28.1,62.4-62.4,62.4H62.4
		C28.1,558,0,529.9,0,495.6V134.4C0,100.1,28.1,72,62.4,72z M354,126c-12,0-21.9,9.9-21.9,21.9v52.3c0,12,9.8,21.9,21.9,21.9h55
		c12,0,21.9-9.8,21.9-21.9v-52.3c0-12-9.8-21.9-21.9-21.9H354z M431.1,277.5h-42.8c4.1,13.2,6.3,27.2,6.3,41.7
		c0,80.8-67.7,146.4-151.1,146.4c-83.4,0-151.1-65.5-151.1-146.4c0-14.5,2.2-28.5,6.3-41.7H54v205.3c0,10.6,8.7,19.3,19.3,19.3
		h338.4c10.6,0,19.3-8.6,19.3-19.3L431.1,277.5L431.1,277.5z M243.5,219.4c-53.9,0-97.6,42.3-97.6,94.6c0,52.2,43.7,94.6,97.6,94.6
		c53.9,0,97.6-42.4,97.6-94.6C341.1,261.7,297.4,219.4,243.5,219.4z"/>
</g>
</svg>
